<svg xmlns="http://www.w3.org/2000/svg" width="24" height="24" viewBox="0 0 24 24"><path fill="currentColor" d="M3 7c0-.55.45-1 1-1h16c.55 0 1 .45 1 1v10c0 .55-.45 1-1 1H4c-.55 0-1-.45-1-1V7zm3.96 2.4c.23 1.52 1.21 3.3 2.35 3.3.34 0 .34-.85.65-1.26.6-.78 1.74.54 2.76 1.22.78.52 1.36.45 1.36.18 0-.53 1.2-1.32 1.82-2.5.1-.2-.06-.4-.29-.34-.68.2-1.92.96-2.17.86-.22-.1-.2-1.18-.7-1.18-.52 0-1.34.66-1.57 1.1-.24.45-.6 1.23-.9 1.23-.46 0-1.03-1.27-1.19-2.64-.03-.24-.2-.27-.36-.27-.4 0-1.16.13-1.76.3-.15.05-.25.13-.2.3z"/></svg>